FAIDC1_INITIAL_WALK01_kinetics.mot
nRows=10
nColumns=19

name FAIDC1_INITIAL_WALK01_kinetics.mot
datacolumns 19
datarows 10
range 0.8399999738 0.8445000052
endheader
time	ground_force_vx	ground_force_vy	ground_force_vz	ground_force_px	ground_force_py	ground_force_pz	1_ground_force_vx	1_ground_force_vy	1_ground_force_vz	1_ground_force_px	1_ground_force_py	1_ground_force_pz	ground_torque_x	ground_torque_y	ground_torque_z	1_ground_torque_x	1_ground_torque_y	1_ground_torque_z
        0.8399999738	      -49.6432342529	      610.6005249023	      -29.3511486053	        1.2476710081	        0.0000000000	        0.0870160758	        0.0000000000	        0.0000000000	        0.0000000000	        0.8362041116	        0.0000000000	        0.2473450303	        0.0000000000	        1.2302274704	        0.0000000000	        0.0000000000	        0.0000000000	        0.0000000000	
        0.8404999971	      -49.3534774780	      609.5948486328	      -29.2606868744	        1.2479547262	        0.0000000000	        0.0870916396	        0.0000000000	        0.0000000000	        0.0000000000	        0.8362041116	        0.0000000000	        0.2473450303	        0.0000000000	        1.2407342196	        0.0000000000	        0.0000000000	        0.0000000000	        0.0000000000	
        0.8410000205	      -49.0641326904	      608.6044311523	      -29.1756553650	        1.2482359409	        0.0000000000	        0.0871674344	        0.0000000000	        0.0000000000	        0.0000000000	        0.8362041116	        0.0000000000	        0.2473450303	        0.0000000000	        1.2510262728	        0.0000000000	        0.0000000000	        0.0000000000	        0.0000000000	
        0.8414999843	      -48.7757110596	      607.6307373047	      -29.0958862305	        1.2485133410	        0.0000000000	        0.0872431919	        0.0000000000	        0.0000000000	        0.0000000000	        0.8362041116	        0.0000000000	        0.2473450303	        0.0000000000	        1.2612925768	        0.0000000000	        0.0000000000	        0.0000000000	        0.0000000000	
        0.8420000076	      -48.4887466431	      606.6749877930	      -29.0211467743	        1.2487858534	        0.0000000000	        0.0873186141	        0.0000000000	        0.0000000000	        0.0000000000	        0.8362041116	        0.0000000000	        0.2473450303	        0.0000000000	        1.2717183828	        0.0000000000	        0.0000000000	        0.0000000000	        0.0000000000	
        0.8424999714	      -48.2037658691	      605.7381591797	      -28.9511356354	        1.2490527630	        0.0000000000	        0.0873933956	        0.0000000000	        0.0000000000	        0.0000000000	        0.8362041116	        0.0000000000	        0.2473450303	       -0.0000000000	        1.2824770212	        0.0000000000	        0.0000000000	        0.0000000000	        0.0000000000	
        0.8429999948	      -47.9212875366	      604.8210449219	      -28.8854961395	        1.2493131161	        0.0000000000	        0.0874672234	        0.0000000000	        0.0000000000	        0.0000000000	        0.8362041116	        0.0000000000	        0.2473450303	       -0.0000000000	        1.2937237024	        0.0000000000	        0.0000000000	        0.0000000000	        0.0000000000	
        0.8435000181	      -47.6417922974	      603.9241943359	      -28.8238143921	        1.2495665550	        0.0000000000	        0.0875397772	        0.0000000000	        0.0000000000	        0.0000000000	        0.8362041116	        0.0000000000	        0.2473450303	        0.0000000000	        1.3055891991	        0.0000000000	        0.0000000000	        0.0000000000	        0.0000000000	
        0.8439999819	      -47.3657302856	      603.0479125977	      -28.7656250000	        1.2498126030	        0.0000000000	        0.0876107365	        0.0000000000	        0.0000000000	        0.0000000000	        0.8362041116	        0.0000000000	        0.2473450303	        0.0000000000	        1.3181755543	        0.0000000000	        0.0000000000	        0.0000000000	        0.0000000000	
        0.8445000052	      -47.0934982300	      602.1922607422	      -28.7104187012	        1.2500511408	        0.0000000000	        0.0876797959	        0.0000000000	        0.0000000000	        0.0000000000	        0.8362041116	        0.0000000000	        0.2473450303	       -0.0000000000	        1.3315525055	        0.0000000000	        0.0000000000	        0.0000000000	        0.0000000000	
